<mxfile host="app.diagrams.net" modified="2023-11-07T05:34:38.921Z" agent="Mozilla/5.0 (X11; Ubuntu; Linux x86_64; rv:109.0) Gecko/20100101 Firefox/119.0" etag="_jYn75drEyu23zaenYVY" version="22.0.8" type="device">
  <diagram name="Page-1" id="dF-n39GfI8d1odxkNiJK">
    <mxGraphModel dx="2049" dy="2144" grid="1" gridSize="10" guides="1" tooltips="1" connect="1" arrows="1" fold="1" page="1" pageScale="1" pageWidth="850" pageHeight="1100" math="0" shadow="0">
      <root>
        <mxCell id="0" />
        <mxCell id="1" parent="0" />
        <mxCell id="EI7FiWirIY5I7oA7hFFx-70" value="" style="rounded=0;whiteSpace=wrap;html=1;sketch=1;curveFitting=1;jiggle=2;fontFamily=Courier New;fontSize=17;fontStyle=1" parent="1" vertex="1">
          <mxGeometry x="720" y="-490" width="1440" height="2230" as="geometry" />
        </mxCell>
        <mxCell id="EI7FiWirIY5I7oA7hFFx-24" value="Version Control System" style="rounded=1;whiteSpace=wrap;html=1;labelPosition=center;verticalLabelPosition=top;align=center;verticalAlign=bottom;fillColor=#e3c800;fontColor=#000000;strokeColor=#B09500;sketch=1;curveFitting=1;jiggle=2;fontFamily=Courier New;fontSize=17;shadow=1;fontStyle=1" parent="1" vertex="1">
          <mxGeometry x="800" y="-410" width="1220" height="1327" as="geometry" />
        </mxCell>
        <mxCell id="EI7FiWirIY5I7oA7hFFx-10" value="./services" style="shape=ext;double=1;rounded=1;whiteSpace=wrap;html=1;labelPosition=center;verticalLabelPosition=top;align=center;verticalAlign=bottom;fillColor=#d5e8d4;strokeColor=#82b366;sketch=1;curveFitting=1;jiggle=2;fontFamily=Courier New;fontSize=17;fontStyle=1" parent="1" vertex="1">
          <mxGeometry x="1115" y="-310" width="830" height="670" as="geometry" />
        </mxCell>
        <mxCell id="WqGZrp7BVqVGv2jiAwjA-20" value="&lt;font color=&quot;#0d0d0d&quot; style=&quot;font-size: 17px;&quot;&gt;...&lt;/font&gt;" style="rounded=1;whiteSpace=wrap;html=1;labelPosition=center;verticalLabelPosition=middle;align=center;verticalAlign=middle;fillColor=#60a917;strokeColor=#2D7600;fontFamily=Courier New;fontSize=17;fontColor=#ffffff;glass=0;shadow=1;fontStyle=1" parent="1" vertex="1">
          <mxGeometry x="1165" y="250" width="730" height="60" as="geometry" />
        </mxCell>
        <mxCell id="EI7FiWirIY5I7oA7hFFx-61" value="./platform" style="shape=ext;double=1;rounded=1;whiteSpace=wrap;html=1;labelPosition=center;verticalLabelPosition=top;align=center;verticalAlign=bottom;fillColor=#dae8fc;strokeColor=#6c8ebf;sketch=1;curveFitting=1;jiggle=2;fontFamily=Courier New;fontSize=17;fontStyle=1" parent="1" vertex="1">
          <mxGeometry x="870" y="393" width="1090" height="447" as="geometry" />
        </mxCell>
        <mxCell id="gmSeYbMX4NVRiQZjB8PG-4" value="./message-bus" style="rounded=1;whiteSpace=wrap;html=1;fillColor=#60a917;strokeColor=#2D7600;fontFamily=Courier New;fontSize=17;fontColor=#050505;glass=0;shadow=1;labelPosition=center;verticalLabelPosition=top;align=center;verticalAlign=bottom;fontStyle=1" vertex="1" parent="1">
          <mxGeometry x="1450" y="430" width="450" height="350" as="geometry" />
        </mxCell>
        <mxCell id="gmSeYbMX4NVRiQZjB8PG-7" value="./stack (IaC)" style="rounded=1;whiteSpace=wrap;html=1;labelPosition=center;verticalLabelPosition=top;align=center;verticalAlign=bottom;sketch=1;curveFitting=1;jiggle=2;fontFamily=Courier New;fontSize=17;fillColor=#fff2cc;strokeColor=#d6b656;fontStyle=1" vertex="1" parent="1">
          <mxGeometry x="1480" y="460" width="400" height="290" as="geometry" />
        </mxCell>
        <mxCell id="WqGZrp7BVqVGv2jiAwjA-95" value="" style="rounded=1;whiteSpace=wrap;html=1;glass=0;shadow=1;sketch=1;curveFitting=1;jiggle=2;fillColor=#f5f5f5;fontColor=#333333;strokeColor=none;fontFamily=Courier New;fontSize=17;fontStyle=1" parent="1" vertex="1">
          <mxGeometry x="818" y="1510" width="440" height="160" as="geometry" />
        </mxCell>
        <mxCell id="gmSeYbMX4NVRiQZjB8PG-27" style="edgeStyle=orthogonalEdgeStyle;rounded=0;orthogonalLoop=1;jettySize=auto;html=1;flowAnimation=1;strokeWidth=6;strokeColor=#3399FF;fontFamily=Courier New;fontSize=17;fontStyle=1" edge="1" parent="1" source="EI7FiWirIY5I7oA7hFFx-66" target="EI7FiWirIY5I7oA7hFFx-23">
          <mxGeometry relative="1" as="geometry">
            <Array as="points">
              <mxPoint x="1500" y="880" />
              <mxPoint x="1020" y="880" />
            </Array>
          </mxGeometry>
        </mxCell>
        <mxCell id="EI7FiWirIY5I7oA7hFFx-66" value="&lt;div style=&quot;font-size: 17px;&quot;&gt;AWS&lt;/div&gt;&lt;div style=&quot;font-size: 17px;&quot;&gt;&lt;br style=&quot;font-size: 17px;&quot;&gt;&lt;/div&gt;" style="shape=ext;double=1;rounded=1;whiteSpace=wrap;html=1;labelPosition=center;verticalLabelPosition=top;align=center;verticalAlign=bottom;sketch=1;curveFitting=1;jiggle=2;fontFamily=Courier New;fontSize=17;spacing=-7;fillColor=#e1d5e7;strokeColor=#9673a6;shadow=1;fontStyle=1" parent="1" vertex="1">
          <mxGeometry x="990" y="970" width="1020" height="500" as="geometry" />
        </mxCell>
        <mxCell id="EI7FiWirIY5I7oA7hFFx-15" value="&lt;font color=&quot;#0d0d0d&quot; style=&quot;font-size: 17px;&quot;&gt;./service-a&lt;/font&gt;" style="rounded=1;whiteSpace=wrap;html=1;labelPosition=center;verticalLabelPosition=top;align=center;verticalAlign=bottom;fillColor=#60a917;strokeColor=#2D7600;fontFamily=Courier New;fontSize=17;fontColor=#ffffff;glass=0;shadow=1;fontStyle=1" parent="1" vertex="1">
          <mxGeometry x="1165" y="-260" width="740" height="220" as="geometry" />
        </mxCell>
        <mxCell id="WqGZrp7BVqVGv2jiAwjA-3" value="./src" style="rounded=1;whiteSpace=wrap;html=1;labelPosition=center;verticalLabelPosition=top;align=center;verticalAlign=bottom;sketch=1;curveFitting=1;jiggle=2;fontFamily=Courier New;fontSize=17;fillColor=#fff2cc;strokeColor=#d6b656;fontStyle=1" parent="1" vertex="1">
          <mxGeometry x="1205" y="-226" width="120" height="160" as="geometry" />
        </mxCell>
        <mxCell id="EI7FiWirIY5I7oA7hFFx-44" value="&lt;div style=&quot;font-size: 17px;&quot;&gt;Tools Account&lt;/div&gt;" style="rounded=1;whiteSpace=wrap;html=1;labelPosition=center;verticalLabelPosition=top;align=center;verticalAlign=bottom;fillColor=#fff2cc;strokeColor=#d6b656;sketch=1;curveFitting=1;jiggle=2;fontFamily=Courier New;fontSize=17;fontStyle=1" parent="1" vertex="1">
          <mxGeometry x="1034" y="1100" width="200" height="320" as="geometry" />
        </mxCell>
        <mxCell id="EI7FiWirIY5I7oA7hFFx-11" value="./libraries" style="shape=ext;double=1;rounded=1;whiteSpace=wrap;html=1;labelPosition=center;verticalLabelPosition=top;align=center;verticalAlign=bottom;fillColor=#ffe6cc;strokeColor=#d79b00;sketch=1;curveFitting=1;jiggle=2;fontFamily=Courier New;fontSize=17;fontStyle=1" parent="1" vertex="1">
          <mxGeometry x="870" y="-300" width="200" height="650" as="geometry" />
        </mxCell>
        <mxCell id="EI7FiWirIY5I7oA7hFFx-47" style="edgeStyle=orthogonalEdgeStyle;orthogonalLoop=0;jettySize=auto;html=1;strokeWidth=6;rounded=1;shadow=0;fontFamily=Courier New;fontSize=17;flowAnimation=1;strokeColor=#CC6600;arcSize=20;startFill=1;comic=0;enumerate=0;orthogonal=0;noJump=0;fontStyle=1" parent="1" source="EI7FiWirIY5I7oA7hFFx-24" target="EI7FiWirIY5I7oA7hFFx-5" edge="1">
          <mxGeometry relative="1" as="geometry">
            <mxPoint x="-280" y="530" as="targetPoint" />
          </mxGeometry>
        </mxCell>
        <mxCell id="EI7FiWirIY5I7oA7hFFx-17" value="./stack (IaC)" style="rounded=1;whiteSpace=wrap;html=1;labelPosition=center;verticalLabelPosition=top;align=center;verticalAlign=bottom;sketch=1;curveFitting=1;jiggle=2;fontFamily=Courier New;fontSize=17;fillColor=#fff2cc;strokeColor=#d6b656;fontStyle=1" parent="1" vertex="1">
          <mxGeometry x="1345" y="-230" width="530" height="170" as="geometry" />
        </mxCell>
        <mxCell id="EI7FiWirIY5I7oA7hFFx-1" value="&lt;div style=&quot;font-size: 17px;&quot;&gt;Lambda&lt;/div&gt;&lt;div style=&quot;font-size: 17px;&quot;&gt;&lt;br style=&quot;font-size: 17px;&quot;&gt;&lt;/div&gt;" style="outlineConnect=0;dashed=0;verticalLabelPosition=bottom;verticalAlign=top;align=center;html=1;shape=mxgraph.aws3.lambda;fillColor=#F58534;gradientColor=none;fontFamily=Courier New;fontSize=17;fontStyle=1" parent="1" vertex="1">
          <mxGeometry x="1656.25" y="-209" width="76.5" height="93" as="geometry" />
        </mxCell>
        <mxCell id="EI7FiWirIY5I7oA7hFFx-2" value="&lt;div style=&quot;font-size: 17px;&quot;&gt;API Gateway&lt;/div&gt;&lt;div style=&quot;font-size: 17px;&quot;&gt;Endpoint&lt;/div&gt;" style="outlineConnect=0;dashed=0;verticalLabelPosition=bottom;verticalAlign=top;align=center;html=1;shape=mxgraph.aws3.api_gateway;fillColor=#D9A741;gradientColor=none;fontFamily=Courier New;fontSize=17;fontStyle=1" parent="1" vertex="1">
          <mxGeometry x="1381.75" y="-209" width="76.5" height="93" as="geometry" />
        </mxCell>
        <mxCell id="EI7FiWirIY5I7oA7hFFx-75" style="edgeStyle=orthogonalEdgeStyle;rounded=0;orthogonalLoop=1;jettySize=auto;html=1;strokeWidth=7;fontFamily=Courier New;fontSize=17;strokeColor=#CC6600;flowAnimation=1;fontStyle=1" parent="1" source="EI7FiWirIY5I7oA7hFFx-4" target="EI7FiWirIY5I7oA7hFFx-7" edge="1">
          <mxGeometry relative="1" as="geometry" />
        </mxCell>
        <mxCell id="EI7FiWirIY5I7oA7hFFx-4" value="&lt;div style=&quot;font-size: 17px;&quot;&gt;S3&lt;/div&gt;" style="outlineConnect=0;dashed=0;verticalLabelPosition=bottom;verticalAlign=top;align=center;html=1;shape=mxgraph.aws3.s3;fillColor=#E05243;gradientColor=none;fontFamily=Courier New;fontSize=17;fontStyle=1" parent="1" vertex="1">
          <mxGeometry x="1090" y="1270" width="76.5" height="93" as="geometry" />
        </mxCell>
        <mxCell id="EI7FiWirIY5I7oA7hFFx-29" style="edgeStyle=orthogonalEdgeStyle;orthogonalLoop=0;jettySize=auto;html=1;strokeWidth=6;rounded=1;shadow=0;fontFamily=Courier New;fontSize=17;flowAnimation=1;strokeColor=#CC6600;arcSize=20;startFill=1;comic=0;enumerate=0;orthogonal=0;noJump=0;fontStyle=1" parent="1" source="EI7FiWirIY5I7oA7hFFx-5" target="EI7FiWirIY5I7oA7hFFx-6" edge="1">
          <mxGeometry relative="1" as="geometry" />
        </mxCell>
        <mxCell id="EI7FiWirIY5I7oA7hFFx-5" value="&lt;div style=&quot;font-size: 17px;&quot;&gt;Github&lt;/div&gt;&lt;div style=&quot;font-size: 17px;&quot;&gt;Actions&lt;br style=&quot;font-size: 17px;&quot;&gt;&lt;/div&gt;" style="dashed=0;outlineConnect=0;html=1;align=center;labelPosition=center;verticalLabelPosition=bottom;verticalAlign=top;shape=mxgraph.weblogos.github;fontFamily=Courier New;fontSize=17;fontStyle=1" parent="1" vertex="1">
          <mxGeometry x="849" y="978" width="75" height="75" as="geometry" />
        </mxCell>
        <mxCell id="EI7FiWirIY5I7oA7hFFx-26" style="edgeStyle=orthogonalEdgeStyle;orthogonalLoop=0;jettySize=auto;html=1;strokeWidth=6;rounded=1;shadow=0;fontFamily=Courier New;fontSize=17;flowAnimation=1;strokeColor=#CC6600;arcSize=20;startFill=1;comic=0;enumerate=0;orthogonal=0;noJump=0;fontStyle=1" parent="1" source="EI7FiWirIY5I7oA7hFFx-6" target="EI7FiWirIY5I7oA7hFFx-4" edge="1">
          <mxGeometry relative="1" as="geometry" />
        </mxCell>
        <mxCell id="WqGZrp7BVqVGv2jiAwjA-65" style="edgeStyle=orthogonalEdgeStyle;rounded=1;orthogonalLoop=0;jettySize=auto;html=1;strokeWidth=6;flowAnimation=1;strokeColor=#CC6600;arcSize=20;startFill=1;comic=0;enumerate=0;orthogonal=0;noJump=0;shadow=0;fontFamily=Courier New;fontSize=17;fontStyle=1" parent="1" source="EI7FiWirIY5I7oA7hFFx-7" target="WqGZrp7BVqVGv2jiAwjA-38" edge="1">
          <mxGeometry relative="1" as="geometry">
            <Array as="points">
              <mxPoint x="1128" y="1060" />
              <mxPoint x="1371" y="1060" />
            </Array>
          </mxGeometry>
        </mxCell>
        <mxCell id="WqGZrp7BVqVGv2jiAwjA-66" style="edgeStyle=orthogonalEdgeStyle;rounded=1;orthogonalLoop=0;jettySize=auto;html=1;strokeWidth=6;flowAnimation=1;strokeColor=#CC6600;arcSize=20;startFill=1;comic=0;enumerate=0;orthogonal=0;noJump=0;shadow=0;fontFamily=Courier New;fontSize=17;fontStyle=1" parent="1" source="EI7FiWirIY5I7oA7hFFx-7" target="WqGZrp7BVqVGv2jiAwjA-39" edge="1">
          <mxGeometry relative="1" as="geometry">
            <Array as="points">
              <mxPoint x="1128" y="1030" />
              <mxPoint x="1605" y="1030" />
            </Array>
          </mxGeometry>
        </mxCell>
        <mxCell id="WqGZrp7BVqVGv2jiAwjA-67" style="edgeStyle=orthogonalEdgeStyle;rounded=1;orthogonalLoop=0;jettySize=auto;html=1;strokeWidth=6;flowAnimation=1;strokeColor=#CC6600;arcSize=20;startFill=1;comic=0;enumerate=0;orthogonal=0;noJump=0;shadow=0;fontFamily=Courier New;fontSize=17;fontStyle=1" parent="1" source="EI7FiWirIY5I7oA7hFFx-7" target="WqGZrp7BVqVGv2jiAwjA-40" edge="1">
          <mxGeometry relative="1" as="geometry">
            <Array as="points">
              <mxPoint x="1128" y="1000" />
              <mxPoint x="1840" y="1000" />
            </Array>
          </mxGeometry>
        </mxCell>
        <mxCell id="EI7FiWirIY5I7oA7hFFx-7" value="&lt;div style=&quot;font-size: 17px;&quot;&gt;CodePipeline&lt;/div&gt;&lt;div style=&quot;font-size: 17px;&quot;&gt;&lt;br style=&quot;font-size: 17px;&quot;&gt;&lt;/div&gt;" style="outlineConnect=0;dashed=0;verticalLabelPosition=bottom;verticalAlign=top;align=center;html=1;shape=mxgraph.aws3.codepipeline;fillColor=#759C3E;gradientColor=none;fontFamily=Courier New;fontSize=17;fontStyle=1" parent="1" vertex="1">
          <mxGeometry x="1094.5" y="1130" width="67.5" height="81" as="geometry" />
        </mxCell>
        <mxCell id="EI7FiWirIY5I7oA7hFFx-21" value="./rigs" style="rounded=1;whiteSpace=wrap;html=1;fillColor=#60a917;strokeColor=#2D7600;glass=0;shadow=1;fontFamily=Courier New;fontSize=17;fontColor=#050505;fontStyle=1" parent="1" vertex="1">
          <mxGeometry x="929.5" y="580" width="180" height="60" as="geometry" />
        </mxCell>
        <mxCell id="EI7FiWirIY5I7oA7hFFx-22" value="&lt;div style=&quot;font-size: 17px;&quot;&gt;./constructs (L3)&lt;br style=&quot;font-size: 17px;&quot;&gt;&lt;/div&gt;" style="rounded=1;whiteSpace=wrap;html=1;fillColor=#60a917;strokeColor=#2D7600;fontFamily=Courier New;fontSize=17;fontColor=#050505;glass=0;shadow=1;fontStyle=1" parent="1" vertex="1">
          <mxGeometry x="929.5" y="480" width="181" height="60" as="geometry" />
        </mxCell>
        <mxCell id="EI7FiWirIY5I7oA7hFFx-23" value="./org-formation" style="rounded=1;whiteSpace=wrap;html=1;fillColor=#60a917;strokeColor=#2D7600;fontFamily=Courier New;fontSize=17;fontColor=#050505;glass=0;shadow=1;fontStyle=1" parent="1" vertex="1">
          <mxGeometry x="934" y="684" width="171" height="60" as="geometry" />
        </mxCell>
        <mxCell id="EI7FiWirIY5I7oA7hFFx-55" value="./faker-factory" style="shape=ext;double=1;rounded=1;whiteSpace=wrap;html=1;labelPosition=center;verticalLabelPosition=middle;align=center;verticalAlign=middle;fillColor=#60a917;strokeColor=#2D7600;fontFamily=Courier New;fontSize=17;fontColor=#000000;glass=0;shadow=1;fontStyle=1" parent="1" vertex="1">
          <mxGeometry x="901" y="-160" width="130" height="67" as="geometry" />
        </mxCell>
        <mxCell id="EI7FiWirIY5I7oA7hFFx-56" value="..." style="shape=ext;double=1;rounded=1;whiteSpace=wrap;html=1;labelPosition=center;verticalLabelPosition=middle;align=center;verticalAlign=middle;fillColor=#60a917;strokeColor=#2D7600;fontFamily=Courier New;fontSize=17;fontColor=#000000;glass=0;shadow=1;fontStyle=1" parent="1" vertex="1">
          <mxGeometry x="901" y="209.75" width="130" height="67" as="geometry" />
        </mxCell>
        <mxCell id="gmSeYbMX4NVRiQZjB8PG-39" style="edgeStyle=orthogonalEdgeStyle;rounded=0;orthogonalLoop=1;jettySize=auto;html=1;strokeColor=#3399FF;strokeWidth=8;flowAnimation=1;" edge="1" parent="1" source="EI7FiWirIY5I7oA7hFFx-59" target="WqGZrp7BVqVGv2jiAwjA-3">
          <mxGeometry relative="1" as="geometry">
            <Array as="points">
              <mxPoint x="1090" y="-240" />
              <mxPoint x="1090" y="-146" />
            </Array>
          </mxGeometry>
        </mxCell>
        <mxCell id="EI7FiWirIY5I7oA7hFFx-59" value="./nestjs-modules" style="shape=ext;double=1;rounded=1;whiteSpace=wrap;html=1;labelPosition=center;verticalLabelPosition=middle;align=center;verticalAlign=middle;fillColor=#60a917;strokeColor=#2D7600;fontFamily=Courier New;fontSize=17;fontColor=#000000;glass=0;shadow=1;fontStyle=1" parent="1" vertex="1">
          <mxGeometry x="900" y="-273.25" width="130" height="67" as="geometry" />
        </mxCell>
        <mxCell id="EI7FiWirIY5I7oA7hFFx-62" value="..." style="rounded=1;whiteSpace=wrap;html=1;fillColor=#60a917;strokeColor=#2D7600;fontFamily=Courier New;fontSize=17;fontColor=#050505;glass=0;shadow=1;fontStyle=1" parent="1" vertex="1">
          <mxGeometry x="1145" y="684" width="180" height="60" as="geometry" />
        </mxCell>
        <mxCell id="EI7FiWirIY5I7oA7hFFx-3" value="&lt;div style=&quot;font-size: 17px;&quot;&gt;NodeJS&lt;/div&gt;" style="outlineConnect=0;dashed=0;verticalLabelPosition=bottom;verticalAlign=top;align=center;html=1;shape=mxgraph.aws3.android;fillColor=#8CC64F;gradientColor=none;fontFamily=Courier New;fontSize=17;fontStyle=1" parent="1" vertex="1">
          <mxGeometry x="1228.25" y="-204.5" width="73.5" height="84" as="geometry" />
        </mxCell>
        <mxCell id="WqGZrp7BVqVGv2jiAwjA-7" value="&lt;font color=&quot;#0d0d0d&quot; style=&quot;font-size: 17px;&quot;&gt;./service-b&lt;/font&gt;" style="rounded=1;whiteSpace=wrap;html=1;labelPosition=center;verticalLabelPosition=top;align=center;verticalAlign=bottom;fillColor=#60a917;strokeColor=#2D7600;fontFamily=Courier New;fontSize=17;fontColor=#ffffff;glass=0;shadow=1;fontStyle=1" parent="1" vertex="1">
          <mxGeometry x="1165" y="-9" width="730" height="220" as="geometry" />
        </mxCell>
        <mxCell id="WqGZrp7BVqVGv2jiAwjA-8" value="./src" style="rounded=1;whiteSpace=wrap;html=1;labelPosition=center;verticalLabelPosition=top;align=center;verticalAlign=bottom;sketch=1;curveFitting=1;jiggle=2;fontFamily=Courier New;fontSize=17;fillColor=#fff2cc;strokeColor=#d6b656;fontStyle=1" parent="1" vertex="1">
          <mxGeometry x="1205" y="25" width="120" height="160" as="geometry" />
        </mxCell>
        <mxCell id="gmSeYbMX4NVRiQZjB8PG-26" style="edgeStyle=orthogonalEdgeStyle;rounded=0;orthogonalLoop=1;jettySize=auto;html=1;entryX=0.5;entryY=0;entryDx=0;entryDy=0;flowAnimation=1;strokeWidth=6;strokeColor=#3399FF;fontFamily=Courier New;fontSize=17;fontStyle=1" edge="1" parent="1" source="WqGZrp7BVqVGv2jiAwjA-9" target="EI7FiWirIY5I7oA7hFFx-22">
          <mxGeometry relative="1" as="geometry">
            <Array as="points">
              <mxPoint x="1605" y="340" />
              <mxPoint x="1020" y="340" />
            </Array>
          </mxGeometry>
        </mxCell>
        <mxCell id="WqGZrp7BVqVGv2jiAwjA-9" value="./stack (IaC)" style="rounded=1;whiteSpace=wrap;html=1;labelPosition=center;verticalLabelPosition=top;align=center;verticalAlign=bottom;sketch=1;curveFitting=1;jiggle=2;fontFamily=Courier New;fontSize=17;fillColor=#fff2cc;strokeColor=#d6b656;fontStyle=1" parent="1" vertex="1">
          <mxGeometry x="1345" y="21" width="520" height="170" as="geometry" />
        </mxCell>
        <mxCell id="gmSeYbMX4NVRiQZjB8PG-21" style="edgeStyle=orthogonalEdgeStyle;rounded=0;orthogonalLoop=1;jettySize=auto;html=1;flowAnimation=1;strokeWidth=6;strokeColor=#B266FF;fontFamily=Courier New;fontSize=17;fontStyle=1" edge="1" parent="1" source="WqGZrp7BVqVGv2jiAwjA-10" target="gmSeYbMX4NVRiQZjB8PG-11">
          <mxGeometry relative="1" as="geometry">
            <Array as="points">
              <mxPoint x="1690" y="340" />
              <mxPoint x="1808" y="340" />
            </Array>
          </mxGeometry>
        </mxCell>
        <mxCell id="WqGZrp7BVqVGv2jiAwjA-10" value="&lt;div style=&quot;font-size: 17px;&quot;&gt;Lambda&lt;/div&gt;" style="outlineConnect=0;dashed=0;verticalLabelPosition=bottom;verticalAlign=top;align=center;html=1;shape=mxgraph.aws3.lambda;fillColor=#F58534;gradientColor=none;fontFamily=Courier New;fontSize=17;fontStyle=1" parent="1" vertex="1">
          <mxGeometry x="1646.25" y="48" width="76.5" height="93" as="geometry" />
        </mxCell>
        <mxCell id="WqGZrp7BVqVGv2jiAwjA-11" value="&lt;div style=&quot;font-size: 17px;&quot;&gt;NodeJS&lt;/div&gt;" style="outlineConnect=0;dashed=0;verticalLabelPosition=bottom;verticalAlign=top;align=center;html=1;shape=mxgraph.aws3.android;fillColor=#8CC64F;gradientColor=none;fontFamily=Courier New;fontSize=17;fontStyle=1" parent="1" vertex="1">
          <mxGeometry x="1228.25" y="47.5" width="73.5" height="84" as="geometry" />
        </mxCell>
        <mxCell id="gmSeYbMX4NVRiQZjB8PG-34" style="edgeStyle=orthogonalEdgeStyle;rounded=0;orthogonalLoop=1;jettySize=auto;html=1;strokeColor=#B266FF;strokeWidth=10;flowAnimation=1;exitX=0.35;exitY=0.5;exitDx=0;exitDy=0;exitPerimeter=0;fontFamily=Courier New;fontSize=17;fontStyle=1" edge="1" parent="1" source="EI7FiWirIY5I7oA7hFFx-2" target="EI7FiWirIY5I7oA7hFFx-1">
          <mxGeometry relative="1" as="geometry">
            <Array as="points">
              <mxPoint x="1418" y="-162" />
              <mxPoint x="1418" y="-50" />
              <mxPoint x="1700" y="-50" />
            </Array>
          </mxGeometry>
        </mxCell>
        <mxCell id="WqGZrp7BVqVGv2jiAwjA-21" value="&lt;div style=&quot;font-size: 17px;&quot;&gt;API Gateway&lt;/div&gt;&lt;div style=&quot;font-size: 17px;&quot;&gt;Endpoint&lt;/div&gt;" style="outlineConnect=0;dashed=0;verticalLabelPosition=bottom;verticalAlign=top;align=center;html=1;shape=mxgraph.aws3.api_gateway;fillColor=#D9A741;gradientColor=none;fontFamily=Courier New;fontSize=17;fontStyle=1" parent="1" vertex="1">
          <mxGeometry x="1379.5" y="48" width="76.5" height="93" as="geometry" />
        </mxCell>
        <mxCell id="WqGZrp7BVqVGv2jiAwjA-22" value="MongoDB" style="dashed=0;outlineConnect=0;html=1;align=center;labelPosition=center;verticalLabelPosition=bottom;verticalAlign=top;shape=mxgraph.webicons.mongodb;gradientColor=#DFDEDE;fontSize=17;fontFamily=Courier New;fontStyle=1" parent="1" vertex="1">
          <mxGeometry x="1506" y="-204.5" width="102.4" height="102.4" as="geometry" />
        </mxCell>
        <mxCell id="WqGZrp7BVqVGv2jiAwjA-70" style="edgeStyle=orthogonalEdgeStyle;rounded=1;orthogonalLoop=0;jettySize=auto;html=1;strokeWidth=6;flowAnimation=1;strokeColor=#4F90FF;arcSize=20;startFill=1;comic=0;enumerate=0;orthogonal=0;noJump=0;shadow=0;fontFamily=Courier New;fontSize=17;fontStyle=1" parent="1" source="WqGZrp7BVqVGv2jiAwjA-38" target="WqGZrp7BVqVGv2jiAwjA-56" edge="1">
          <mxGeometry relative="1" as="geometry" />
        </mxCell>
        <mxCell id="WqGZrp7BVqVGv2jiAwjA-38" value="Sandbox Account" style="rounded=1;whiteSpace=wrap;html=1;labelPosition=center;verticalLabelPosition=top;align=center;verticalAlign=bottom;fillColor=#fff2cc;strokeColor=#d6b656;sketch=1;curveFitting=1;jiggle=2;fontFamily=Courier New;fontSize=17;fontStyle=1" parent="1" vertex="1">
          <mxGeometry x="1271" y="1100" width="200" height="320" as="geometry" />
        </mxCell>
        <mxCell id="WqGZrp7BVqVGv2jiAwjA-71" style="edgeStyle=orthogonalEdgeStyle;rounded=1;orthogonalLoop=0;jettySize=auto;html=1;strokeWidth=6;flowAnimation=1;strokeColor=#4F90FF;arcSize=20;startFill=1;comic=0;enumerate=0;orthogonal=0;noJump=0;shadow=0;fontFamily=Courier New;fontSize=17;fontStyle=1" parent="1" source="WqGZrp7BVqVGv2jiAwjA-39" target="WqGZrp7BVqVGv2jiAwjA-57" edge="1">
          <mxGeometry relative="1" as="geometry" />
        </mxCell>
        <mxCell id="WqGZrp7BVqVGv2jiAwjA-39" value="Test Account" style="rounded=1;whiteSpace=wrap;html=1;labelPosition=center;verticalLabelPosition=top;align=center;verticalAlign=bottom;fillColor=#fff2cc;strokeColor=#d6b656;sketch=1;curveFitting=1;jiggle=2;fontFamily=Courier New;fontSize=17;fontStyle=1" parent="1" vertex="1">
          <mxGeometry x="1505" y="1100" width="200" height="320" as="geometry" />
        </mxCell>
        <mxCell id="WqGZrp7BVqVGv2jiAwjA-72" style="edgeStyle=orthogonalEdgeStyle;rounded=1;orthogonalLoop=0;jettySize=auto;html=1;strokeWidth=6;flowAnimation=1;strokeColor=#4F90FF;arcSize=20;startFill=1;comic=0;enumerate=0;orthogonal=0;noJump=0;shadow=0;fontFamily=Courier New;fontSize=17;fontStyle=1" parent="1" source="WqGZrp7BVqVGv2jiAwjA-40" target="WqGZrp7BVqVGv2jiAwjA-58" edge="1">
          <mxGeometry relative="1" as="geometry" />
        </mxCell>
        <mxCell id="WqGZrp7BVqVGv2jiAwjA-40" value="Production Account" style="rounded=1;whiteSpace=wrap;html=1;labelPosition=center;verticalLabelPosition=top;align=center;verticalAlign=bottom;fillColor=#fff2cc;strokeColor=#d6b656;sketch=1;curveFitting=1;jiggle=2;fontFamily=Courier New;fontSize=17;fontStyle=1" parent="1" vertex="1">
          <mxGeometry x="1740" y="1100" width="200" height="320" as="geometry" />
        </mxCell>
        <mxCell id="WqGZrp7BVqVGv2jiAwjA-45" value="&lt;div style=&quot;font-size: 17px;&quot;&gt;Lambda&lt;/div&gt;" style="outlineConnect=0;dashed=0;verticalLabelPosition=bottom;verticalAlign=top;align=center;html=1;shape=mxgraph.aws3.lambda;fillColor=#F58534;gradientColor=none;fontFamily=Courier New;fontSize=17;fontStyle=1" parent="1" vertex="1">
          <mxGeometry x="1330" y="1268" width="76.5" height="93" as="geometry" />
        </mxCell>
        <mxCell id="WqGZrp7BVqVGv2jiAwjA-48" value="&lt;div style=&quot;font-size: 17px;&quot;&gt;API Gateway&lt;/div&gt;&lt;div style=&quot;font-size: 17px;&quot;&gt;Endpoint&lt;/div&gt;" style="outlineConnect=0;dashed=0;verticalLabelPosition=bottom;verticalAlign=top;align=center;html=1;shape=mxgraph.aws3.api_gateway;fillColor=#D9A741;gradientColor=none;fontFamily=Courier New;fontSize=17;fontStyle=1" parent="1" vertex="1">
          <mxGeometry x="1330" y="1116" width="76.5" height="93" as="geometry" />
        </mxCell>
        <mxCell id="WqGZrp7BVqVGv2jiAwjA-50" value="&lt;div style=&quot;font-size: 17px;&quot;&gt;Lambda&lt;/div&gt;" style="outlineConnect=0;dashed=0;verticalLabelPosition=bottom;verticalAlign=top;align=center;html=1;shape=mxgraph.aws3.lambda;fillColor=#F58534;gradientColor=none;fontFamily=Courier New;fontSize=17;fontStyle=1" parent="1" vertex="1">
          <mxGeometry x="1570" y="1268" width="76.5" height="93" as="geometry" />
        </mxCell>
        <mxCell id="WqGZrp7BVqVGv2jiAwjA-52" value="&lt;div style=&quot;font-size: 17px;&quot;&gt;API Gateway&lt;/div&gt;&lt;div style=&quot;font-size: 17px;&quot;&gt;Endpoint&lt;/div&gt;" style="outlineConnect=0;dashed=0;verticalLabelPosition=bottom;verticalAlign=top;align=center;html=1;shape=mxgraph.aws3.api_gateway;fillColor=#D9A741;gradientColor=none;fontFamily=Courier New;fontSize=17;fontStyle=1" parent="1" vertex="1">
          <mxGeometry x="1570" y="1116" width="76.5" height="93" as="geometry" />
        </mxCell>
        <mxCell id="WqGZrp7BVqVGv2jiAwjA-53" value="&lt;div style=&quot;font-size: 17px;&quot;&gt;Lambda&lt;/div&gt;" style="outlineConnect=0;dashed=0;verticalLabelPosition=bottom;verticalAlign=top;align=center;html=1;shape=mxgraph.aws3.lambda;fillColor=#F58534;gradientColor=none;fontFamily=Courier New;fontSize=17;fontStyle=1" parent="1" vertex="1">
          <mxGeometry x="1800" y="1268" width="76.5" height="93" as="geometry" />
        </mxCell>
        <mxCell id="WqGZrp7BVqVGv2jiAwjA-55" value="&lt;div style=&quot;font-size: 17px;&quot;&gt;API Gateway&lt;/div&gt;&lt;div style=&quot;font-size: 17px;&quot;&gt;Endpoint&lt;/div&gt;" style="outlineConnect=0;dashed=0;verticalLabelPosition=bottom;verticalAlign=top;align=center;html=1;shape=mxgraph.aws3.api_gateway;fillColor=#D9A741;gradientColor=none;fontFamily=Courier New;fontSize=17;fontStyle=1" parent="1" vertex="1">
          <mxGeometry x="1800" y="1116" width="76.5" height="93" as="geometry" />
        </mxCell>
        <mxCell id="WqGZrp7BVqVGv2jiAwjA-56" value="MongoDB Atlas" style="dashed=0;outlineConnect=0;html=1;align=center;labelPosition=center;verticalLabelPosition=bottom;verticalAlign=top;shape=mxgraph.webicons.mongodb;gradientColor=#DFDEDE;fontSize=17;fontFamily=Courier New;fontStyle=1" parent="1" vertex="1">
          <mxGeometry x="1320.1" y="1512" width="102.4" height="102.4" as="geometry" />
        </mxCell>
        <mxCell id="WqGZrp7BVqVGv2jiAwjA-57" value="MongoDB Atlas" style="dashed=0;outlineConnect=0;html=1;align=center;labelPosition=center;verticalLabelPosition=bottom;verticalAlign=top;shape=mxgraph.webicons.mongodb;gradientColor=#DFDEDE;fontSize=17;fontFamily=Courier New;fontStyle=1" parent="1" vertex="1">
          <mxGeometry x="1554.1" y="1510" width="102.4" height="102.4" as="geometry" />
        </mxCell>
        <mxCell id="WqGZrp7BVqVGv2jiAwjA-58" value="MongoDB Atlas" style="dashed=0;outlineConnect=0;html=1;align=center;labelPosition=center;verticalLabelPosition=bottom;verticalAlign=top;shape=mxgraph.webicons.mongodb;gradientColor=#DFDEDE;fontSize=17;fontFamily=Courier New;fontStyle=1" parent="1" vertex="1">
          <mxGeometry x="1790.1" y="1510" width="102.4" height="102.4" as="geometry" />
        </mxCell>
        <mxCell id="WqGZrp7BVqVGv2jiAwjA-68" value="MongoDB" style="dashed=0;outlineConnect=0;html=1;align=center;labelPosition=center;verticalLabelPosition=bottom;verticalAlign=top;shape=mxgraph.webicons.mongodb;gradientColor=#DFDEDE;fontSize=17;fontFamily=Courier New;fontStyle=1" parent="1" vertex="1">
          <mxGeometry x="1496" y="46.5" width="102.4" height="102.4" as="geometry" />
        </mxCell>
        <mxCell id="WqGZrp7BVqVGv2jiAwjA-78" value="&amp;nbsp;Package/Project" style="rounded=1;whiteSpace=wrap;html=1;fillColor=#60a917;strokeColor=#2D7600;glass=0;shadow=1;fontFamily=Courier New;fontSize=17;fontColor=#050505;labelPosition=right;verticalLabelPosition=middle;align=left;verticalAlign=middle;fontStyle=1" parent="1" vertex="1">
          <mxGeometry x="1045" y="1559" width="40" height="40" as="geometry" />
        </mxCell>
        <mxCell id="WqGZrp7BVqVGv2jiAwjA-85" style="edgeStyle=orthogonalEdgeStyle;orthogonalLoop=0;jettySize=auto;html=1;strokeWidth=6;rounded=1;shadow=0;fontFamily=Courier New;fontSize=17;flowAnimation=1;strokeColor=#CC6600;arcSize=20;startFill=1;comic=0;enumerate=0;orthogonal=0;noJump=0;fontStyle=1" parent="1" edge="1">
          <mxGeometry relative="1" as="geometry">
            <mxPoint x="840" y="1583" as="sourcePoint" />
            <mxPoint x="893" y="1580" as="targetPoint" />
            <Array as="points">
              <mxPoint x="860" y="1580" />
              <mxPoint x="860" y="1580" />
            </Array>
          </mxGeometry>
        </mxCell>
        <mxCell id="WqGZrp7BVqVGv2jiAwjA-86" style="edgeStyle=orthogonalEdgeStyle;orthogonalLoop=0;jettySize=auto;html=1;strokeWidth=6;rounded=1;shadow=0;fontFamily=Courier New;fontSize=17;flowAnimation=1;strokeColor=#3399FF;arcSize=20;startFill=1;comic=0;enumerate=0;orthogonal=0;noJump=0;fontStyle=1" parent="1" edge="1">
          <mxGeometry relative="1" as="geometry">
            <mxPoint x="840" y="1633" as="sourcePoint" />
            <mxPoint x="893" y="1630" as="targetPoint" />
            <Array as="points">
              <mxPoint x="860" y="1630" />
              <mxPoint x="860" y="1630" />
            </Array>
          </mxGeometry>
        </mxCell>
        <mxCell id="WqGZrp7BVqVGv2jiAwjA-87" value="CI/CD Path" style="rounded=1;whiteSpace=wrap;html=1;fillColor=none;strokeColor=none;glass=0;shadow=1;fontFamily=Courier New;fontSize=17;fontColor=#050505;labelPosition=right;verticalLabelPosition=middle;align=left;verticalAlign=middle;fontStyle=1" parent="1" vertex="1">
          <mxGeometry x="867" y="1559" width="40" height="40" as="geometry" />
        </mxCell>
        <mxCell id="WqGZrp7BVqVGv2jiAwjA-88" value="Resource Dependency" style="rounded=1;whiteSpace=wrap;html=1;fillColor=none;strokeColor=none;glass=0;shadow=1;fontFamily=Courier New;fontSize=17;fontColor=#050505;labelPosition=right;verticalLabelPosition=middle;align=left;verticalAlign=middle;fontStyle=1" parent="1" vertex="1">
          <mxGeometry x="867" y="1611" width="40" height="40" as="geometry" />
        </mxCell>
        <mxCell id="WqGZrp7BVqVGv2jiAwjA-91" value="&lt;font style=&quot;font-size: 17px;&quot;&gt;Legend&lt;/font&gt;" style="text;html=1;align=center;verticalAlign=middle;resizable=0;points=[];autosize=1;strokeColor=none;fillColor=none;fontFamily=Courier New;fontSize=17;fontStyle=1" parent="1" vertex="1">
          <mxGeometry x="817" y="1520" width="80" height="30" as="geometry" />
        </mxCell>
        <mxCell id="EI7FiWirIY5I7oA7hFFx-6" value="&lt;div style=&quot;font-size: 17px;&quot;&gt;Build Artifacts&lt;/div&gt;" style="shape=image;html=1;verticalAlign=top;verticalLabelPosition=bottom;labelBackgroundColor=#ffffff;imageAspect=0;aspect=fixed;image=https://cdn0.iconfinder.com/data/icons/file-type-19/512/file__zip__compressed_-128.png;sketch=1;curveFitting=1;jiggle=2;fontFamily=Courier New;fontSize=17;fontStyle=1" parent="1" vertex="1">
          <mxGeometry x="851.5" y="1282" width="70" height="70" as="geometry" />
        </mxCell>
        <mxCell id="gmSeYbMX4NVRiQZjB8PG-1" value="&lt;div style=&quot;font-size: 17px;&quot;&gt;SQS&lt;/div&gt;" style="outlineConnect=0;dashed=0;verticalLabelPosition=bottom;verticalAlign=top;align=center;html=1;shape=mxgraph.aws3.sqs;fillColor=#D9A741;gradientColor=none;fontFamily=Courier New;fontSize=17;fontStyle=1" vertex="1" parent="1">
          <mxGeometry x="1763" y="-204.5" width="76.5" height="93" as="geometry" />
        </mxCell>
        <mxCell id="gmSeYbMX4NVRiQZjB8PG-13" style="edgeStyle=orthogonalEdgeStyle;rounded=0;orthogonalLoop=1;jettySize=auto;html=1;flowAnimation=1;strokeWidth=6;strokeColor=#B266FF;fontFamily=Courier New;fontSize=17;fontStyle=1" edge="1" parent="1" source="gmSeYbMX4NVRiQZjB8PG-5" target="gmSeYbMX4NVRiQZjB8PG-10">
          <mxGeometry relative="1" as="geometry" />
        </mxCell>
        <mxCell id="gmSeYbMX4NVRiQZjB8PG-35" style="edgeStyle=orthogonalEdgeStyle;rounded=0;orthogonalLoop=1;jettySize=auto;html=1;strokeColor=#B266FF;strokeWidth=8;flowAnimation=1;fontFamily=Courier New;fontSize=17;fontStyle=1" edge="1" parent="1" source="gmSeYbMX4NVRiQZjB8PG-5" target="gmSeYbMX4NVRiQZjB8PG-16">
          <mxGeometry relative="1" as="geometry">
            <Array as="points">
              <mxPoint x="1808" y="610" />
              <mxPoint x="1990" y="610" />
              <mxPoint x="1990" y="100" />
            </Array>
          </mxGeometry>
        </mxCell>
        <mxCell id="gmSeYbMX4NVRiQZjB8PG-5" value="SNS" style="outlineConnect=0;dashed=0;verticalLabelPosition=bottom;verticalAlign=top;align=center;html=1;shape=mxgraph.aws3.sns;fillColor=#D9A741;gradientColor=none;fontFamily=Courier New;fontSize=17;fontStyle=1" vertex="1" parent="1">
          <mxGeometry x="1780" y="656.5" width="76.5" height="76.5" as="geometry" />
        </mxCell>
        <mxCell id="gmSeYbMX4NVRiQZjB8PG-24" style="edgeStyle=orthogonalEdgeStyle;rounded=0;orthogonalLoop=1;jettySize=auto;html=1;entryX=0;entryY=0.5;entryDx=0;entryDy=0;flowAnimation=1;strokeWidth=6;strokeColor=#3399FF;fontFamily=Courier New;fontSize=17;fontStyle=1" edge="1" parent="1" source="gmSeYbMX4NVRiQZjB8PG-6" target="gmSeYbMX4NVRiQZjB8PG-8">
          <mxGeometry relative="1" as="geometry">
            <Array as="points">
              <mxPoint x="1090" y="115" />
              <mxPoint x="1090" y="-6" />
            </Array>
          </mxGeometry>
        </mxCell>
        <mxCell id="gmSeYbMX4NVRiQZjB8PG-6" value="./message-schemas" style="shape=ext;double=1;rounded=1;whiteSpace=wrap;html=1;labelPosition=center;verticalLabelPosition=middle;align=center;verticalAlign=middle;fillColor=#60a917;strokeColor=#2D7600;fontFamily=Courier New;fontSize=17;fontColor=#000000;glass=0;shadow=1;fontStyle=1" vertex="1" parent="1">
          <mxGeometry x="901" y="81.9" width="130" height="67" as="geometry" />
        </mxCell>
        <mxCell id="gmSeYbMX4NVRiQZjB8PG-8" value="./validation-schema" style="shape=ext;double=1;rounded=1;whiteSpace=wrap;html=1;labelPosition=center;verticalLabelPosition=middle;align=center;verticalAlign=middle;fillColor=#60a917;strokeColor=#2D7600;fontFamily=Courier New;fontSize=17;fontColor=#000000;glass=0;shadow=1;fontStyle=1" vertex="1" parent="1">
          <mxGeometry x="900" y="-40.00000000000003" width="130" height="67" as="geometry" />
        </mxCell>
        <mxCell id="gmSeYbMX4NVRiQZjB8PG-9" value="&lt;div style=&quot;font-size: 17px;&quot;&gt;S3 DataLake&lt;/div&gt;&lt;div style=&quot;font-size: 17px;&quot;&gt;&lt;br style=&quot;font-size: 17px;&quot;&gt;&lt;/div&gt;" style="outlineConnect=0;dashed=0;verticalLabelPosition=bottom;verticalAlign=top;align=center;html=1;shape=mxgraph.aws3.s3;fillColor=#E05243;gradientColor=none;fontFamily=Courier New;fontSize=17;fontStyle=1" vertex="1" parent="1">
          <mxGeometry x="1510" y="598.5" width="76.5" height="93" as="geometry" />
        </mxCell>
        <mxCell id="gmSeYbMX4NVRiQZjB8PG-15" style="edgeStyle=orthogonalEdgeStyle;rounded=0;orthogonalLoop=1;jettySize=auto;html=1;flowAnimation=1;strokeWidth=6;strokeColor=#B266FF;fontFamily=Courier New;fontSize=17;fontStyle=1" edge="1" parent="1" source="gmSeYbMX4NVRiQZjB8PG-10" target="gmSeYbMX4NVRiQZjB8PG-9">
          <mxGeometry relative="1" as="geometry" />
        </mxCell>
        <mxCell id="gmSeYbMX4NVRiQZjB8PG-10" value="&lt;div style=&quot;font-size: 17px;&quot;&gt;Kinesis Firehouse&lt;/div&gt;" style="sketch=0;points=[[0,0,0],[0.25,0,0],[0.5,0,0],[0.75,0,0],[1,0,0],[0,1,0],[0.25,1,0],[0.5,1,0],[0.75,1,0],[1,1,0],[0,0.25,0],[0,0.5,0],[0,0.75,0],[1,0.25,0],[1,0.5,0],[1,0.75,0]];outlineConnect=0;fontColor=#232F3E;fillColor=#8C4FFF;strokeColor=#ffffff;dashed=0;verticalLabelPosition=bottom;verticalAlign=top;align=center;html=1;fontSize=17;fontStyle=1;aspect=fixed;shape=mxgraph.aws4.resourceIcon;resIcon=mxgraph.aws4.kinesis_data_firehose;fontFamily=Courier New;" vertex="1" parent="1">
          <mxGeometry x="1626" y="480" width="78" height="78" as="geometry" />
        </mxCell>
        <mxCell id="gmSeYbMX4NVRiQZjB8PG-12" style="edgeStyle=orthogonalEdgeStyle;rounded=0;orthogonalLoop=1;jettySize=auto;html=1;flowAnimation=1;strokeWidth=6;strokeColor=#B266FF;fontFamily=Courier New;fontSize=17;fontStyle=1" edge="1" parent="1" source="gmSeYbMX4NVRiQZjB8PG-11" target="gmSeYbMX4NVRiQZjB8PG-10">
          <mxGeometry relative="1" as="geometry" />
        </mxCell>
        <mxCell id="gmSeYbMX4NVRiQZjB8PG-11" value="SNS" style="outlineConnect=0;dashed=0;verticalLabelPosition=bottom;verticalAlign=top;align=center;html=1;shape=mxgraph.aws3.sns;fillColor=#D9A741;gradientColor=none;fontFamily=Courier New;fontSize=17;fontStyle=1" vertex="1" parent="1">
          <mxGeometry x="1780" y="480" width="76.5" height="76.5" as="geometry" />
        </mxCell>
        <mxCell id="gmSeYbMX4NVRiQZjB8PG-16" value="&lt;div style=&quot;font-size: 17px;&quot;&gt;SQS&lt;/div&gt;" style="outlineConnect=0;dashed=0;verticalLabelPosition=bottom;verticalAlign=top;align=center;html=1;shape=mxgraph.aws3.sqs;fillColor=#D9A741;gradientColor=none;fontFamily=Courier New;fontSize=17;fontStyle=1" vertex="1" parent="1">
          <mxGeometry x="1753" y="53.5" width="76.5" height="93" as="geometry" />
        </mxCell>
        <mxCell id="gmSeYbMX4NVRiQZjB8PG-17" value="./cli-tools" style="rounded=1;whiteSpace=wrap;html=1;fillColor=#60a917;strokeColor=#2D7600;fontFamily=Courier New;fontSize=17;fontColor=#050505;glass=0;shadow=1;fontStyle=1" vertex="1" parent="1">
          <mxGeometry x="1149.5" y="480" width="181" height="60" as="geometry" />
        </mxCell>
        <mxCell id="gmSeYbMX4NVRiQZjB8PG-18" value="./api-gateway" style="rounded=1;whiteSpace=wrap;html=1;fillColor=#60a917;strokeColor=#2D7600;glass=0;shadow=1;fontFamily=Courier New;fontSize=17;fontColor=#050505;fontStyle=1" vertex="1" parent="1">
          <mxGeometry x="1149.5" y="580" width="180" height="60" as="geometry" />
        </mxCell>
        <mxCell id="gmSeYbMX4NVRiQZjB8PG-19" style="edgeStyle=orthogonalEdgeStyle;rounded=0;orthogonalLoop=1;jettySize=auto;html=1;flowAnimation=1;strokeWidth=6;strokeColor=#B266FF;fontFamily=Courier New;fontSize=17;fontStyle=1" edge="1" parent="1" source="gmSeYbMX4NVRiQZjB8PG-11" target="gmSeYbMX4NVRiQZjB8PG-1">
          <mxGeometry relative="1" as="geometry">
            <Array as="points">
              <mxPoint x="2070" y="496" />
              <mxPoint x="2070" y="-158" />
            </Array>
          </mxGeometry>
        </mxCell>
        <mxCell id="gmSeYbMX4NVRiQZjB8PG-22" style="edgeStyle=orthogonalEdgeStyle;rounded=0;orthogonalLoop=1;jettySize=auto;html=1;entryX=0.5;entryY=1;entryDx=0;entryDy=0;entryPerimeter=0;flowAnimation=1;strokeWidth=6;strokeColor=#3399FF;fontFamily=Courier New;fontSize=17;fontStyle=1" edge="1" parent="1" source="gmSeYbMX4NVRiQZjB8PG-18" target="WqGZrp7BVqVGv2jiAwjA-21">
          <mxGeometry relative="1" as="geometry" />
        </mxCell>
        <mxCell id="gmSeYbMX4NVRiQZjB8PG-25" style="edgeStyle=orthogonalEdgeStyle;rounded=0;orthogonalLoop=1;jettySize=auto;html=1;entryX=0.002;entryY=0.64;entryDx=0;entryDy=0;entryPerimeter=0;flowAnimation=1;strokeWidth=6;strokeColor=#3399FF;fontFamily=Courier New;fontSize=17;fontStyle=1" edge="1" parent="1" source="gmSeYbMX4NVRiQZjB8PG-6" target="gmSeYbMX4NVRiQZjB8PG-4">
          <mxGeometry relative="1" as="geometry">
            <Array as="points">
              <mxPoint x="830" y="115" />
              <mxPoint x="830" y="654" />
            </Array>
          </mxGeometry>
        </mxCell>
        <mxCell id="gmSeYbMX4NVRiQZjB8PG-29" style="edgeStyle=orthogonalEdgeStyle;orthogonalLoop=0;jettySize=auto;html=1;strokeWidth=6;rounded=1;shadow=0;fontFamily=Courier New;fontSize=17;flowAnimation=1;strokeColor=#B266FF;arcSize=20;startFill=1;comic=0;enumerate=0;orthogonal=0;noJump=0;fontStyle=1" edge="1" parent="1">
          <mxGeometry relative="1" as="geometry">
            <mxPoint x="1040" y="1633" as="sourcePoint" />
            <mxPoint x="1093" y="1630" as="targetPoint" />
            <Array as="points">
              <mxPoint x="1060" y="1630" />
              <mxPoint x="1060" y="1630" />
            </Array>
          </mxGeometry>
        </mxCell>
        <mxCell id="gmSeYbMX4NVRiQZjB8PG-30" value="Control Flow" style="rounded=1;whiteSpace=wrap;html=1;fillColor=none;strokeColor=none;glass=0;shadow=1;fontFamily=Courier New;fontSize=17;fontColor=#050505;labelPosition=right;verticalLabelPosition=middle;align=left;verticalAlign=middle;fontStyle=1" vertex="1" parent="1">
          <mxGeometry x="1057" y="1611" width="40" height="40" as="geometry" />
        </mxCell>
        <mxCell id="gmSeYbMX4NVRiQZjB8PG-32" style="edgeStyle=orthogonalEdgeStyle;rounded=0;orthogonalLoop=1;jettySize=auto;html=1;entryX=0.5;entryY=0;entryDx=0;entryDy=0;entryPerimeter=0;strokeWidth=8;flowAnimation=1;strokeColor=#B266FF;fontFamily=Courier New;fontSize=17;fontStyle=1" edge="1" parent="1" source="gmSeYbMX4NVRiQZjB8PG-16" target="WqGZrp7BVqVGv2jiAwjA-10">
          <mxGeometry relative="1" as="geometry">
            <Array as="points">
              <mxPoint x="1791" y="-20" />
              <mxPoint x="1685" y="-20" />
            </Array>
          </mxGeometry>
        </mxCell>
        <mxCell id="gmSeYbMX4NVRiQZjB8PG-38" style="edgeStyle=orthogonalEdgeStyle;rounded=0;orthogonalLoop=1;jettySize=auto;html=1;entryX=0.392;entryY=0.699;entryDx=0;entryDy=0;entryPerimeter=0;strokeColor=#B266FF;strokeWidth=7;flowAnimation=1;fontFamily=Courier New;fontSize=17;fontStyle=1" edge="1" parent="1" source="EI7FiWirIY5I7oA7hFFx-1" target="gmSeYbMX4NVRiQZjB8PG-5">
          <mxGeometry relative="1" as="geometry">
            <Array as="points">
              <mxPoint x="1690" y="-380" />
              <mxPoint x="2120" y="-380" />
              <mxPoint x="2120" y="820" />
              <mxPoint x="1810" y="820" />
            </Array>
          </mxGeometry>
        </mxCell>
      </root>
    </mxGraphModel>
  </diagram>
</mxfile>
